<svg xmlns="http://www.w3.org/2000/svg" viewBox="0 0 1600 900" role="img" aria-labelledby="title desc">
  <title id="title">Fabric Classification placeholder artwork</title>
  <desc id="desc">A woven grid crossed by an acoustic waveform.</desc>
  <defs>
    <linearGradient id="bg" x1="0" y1="0" x2="1" y2="1"><stop stop-color="#eef3f5"/><stop offset="1" stop-color="#dbe4e8"/></linearGradient>
    <pattern id="weave" width="56" height="56" patternUnits="userSpaceOnUse"><path d="M0 14h56M0 42h56M14 0v56M42 0v56" stroke="#2c3e50" stroke-opacity=".12" stroke-width="8"/></pattern>
  </defs>
  <rect width="1600" height="900" fill="url(#bg)"/><rect x="80" y="80" width="1440" height="740" rx="36" fill="url(#weave)"/>
  <path d="M120 465h120l40-110 52 240 62-390 62 520 55-350 65 180 62-95h132l48-145 55 300 58-485 60 600 54-350 60 145 55-60h174" fill="none" stroke="#2c3e50" stroke-linecap="round" stroke-linejoin="round" stroke-width="18"/>
  <circle cx="120" cy="465" r="16" fill="#b25f4b"/><circle cx="1480" cy="465" r="16" fill="#b25f4b"/>
</svg>
